<?xml version="1.0" encoding="utf-8"?>
<!-- Generator: Adobe Illustrator 27.0.0, SVG Export Plug-In . SVG Version: 6.00 Build 0)  -->
<svg version="1.1" id="图层_1" xmlns="http://www.w3.org/2000/svg" xmlns:xlink="http://www.w3.org/1999/xlink" x="0px" y="0px"
	 width="161.9px" height="26.5px" viewBox="0 0 161.9 26.5" style="enable-background:new 0 0 161.9 26.5;" xml:space="preserve">
<style type="text/css">
	.st0{fill:none;stroke:#231815;stroke-width:5;stroke-miterlimit:10;}
</style>
<path class="st0" d="M1.1,6.6c7.8-4,16.8-5,25.3-3c4.6,1.1,9.1,2.2,11.1,5.9c0.2,0.3,2.7,5-1.9,8.1c-2.9,1.7-6.3,2.3-9.6,1.7
	c-3.8-0.8-6.1-3.1-6.4-5.3c-0.4-3.1,3.1-5.2,4.6-6.2c5.9-3.7,14.1-3.6,20.6-3.5c5.1,0.1,8-0.4,12.1,1.6c1,0.4,1.9,0.9,2.8,1.6
	c1.3,0.8,2.3,1.9,3,3.3c0.5,1.3,0.6,2.8,0.2,4.1c-0.4,1.4-1.3,2.7-2.4,3.6c-2.1,1.7-4.8,2.7-7.5,2.6c-1.4,0.1-5.7,0.3-9-2.6
	c-1.2-0.9-2.1-2.2-2.5-3.7c-0.3-2,0.3-3.9,1.6-5.5c1.3-1.5,3-2.6,4.9-3.1c3-1.2,6.1-2.1,9.3-2.7c2.4-0.4,4.8-0.7,7.3-0.7
	c0.9,0,2.2,0.1,4.8,0.2c3,0.2,5.2,0.3,6.7,0.4c3.5,0.3,5.3,0.4,6.8,0.6l3.8,0.5l1.8,0.2c5.9,0.7,7.8,0.7,10.5,1.8
	c0.7,0.3,1.3,0.6,1.9,1c1.5,0.9,2.7,2.3,3.3,4c0.3,1.3,0.2,2.7-0.3,3.9c-1.8,4.7-10.4,7.3-17.1,5.1c-2.6-0.9-7-3.1-7.2-6.3
	c0-1.1,0.3-2.1,0.9-3c1-1.8,2.6-3.2,4.5-4.1C89.3,5,94.2,3.9,101.4,3c4.7-0.6,9.5-0.7,14.3-0.4c10.1,0.5,11.7,1.4,14,2
	c2.9,0.8,8.9,2.4,10.4,6.4c1.2,3.1-0.8,6.8-5.1,8.8c-4.4,2.1-11.6,2.5-15.4-0.3c-3.6-2.6-4.6-7.6-2.3-10c2.2-2.2,4.9-3.8,7.9-4.8
	c4.1-1.3,15.1-2.5,23.9,0.7c8.6,3.1,9.9,10,10.2,11.7c0.5,2.8,0,5.7-1.4,8.3"/>
</svg>
