<svg id="图层_1" data-name="图层 1" xmlns="http://www.w3.org/2000/svg" viewBox="0 0 161.95 26.51"><defs><style>.cls-1{fill:#fff;stroke:#231815;stroke-miterlimit:10;stroke-width:5px;}</style></defs><title>logo</title><path class="cls-1" d="M123.44,179.64a37,37,0,0,1,25.29-3c4.61,1.06,9.06,2.24,11.12,5.86.16.28,2.74,5-1.88,8.1a13.77,13.77,0,0,1-9.56,1.73c-3.81-.77-6.13-3.09-6.45-5.27-.44-3.05,3.09-5.25,4.6-6.2,5.9-3.68,14.1-3.55,20.61-3.46,5.08.08,8-.39,12.15,1.55a13.82,13.82,0,0,1,2.78,1.58,7.94,7.94,0,0,1,3,3.29,6.57,6.57,0,0,1,.23,4.14,7.32,7.32,0,0,1-2.4,3.62,11.7,11.7,0,0,1-7.53,2.65c-1.44.08-5.72.3-9-2.57a6.69,6.69,0,0,1-2.49-3.73,7,7,0,0,1,1.58-5.46,9.66,9.66,0,0,1,4.87-3.14,45.85,45.85,0,0,1,9.32-2.69,43.9,43.9,0,0,1,7.28-.68c.89,0,2.19.07,4.78.2,3,.16,5.25.32,6.66.42,3.54.26,5.31.38,6.77.59l3.75.5,1.78.23c5.87.73,7.79.71,10.49,1.8a11.44,11.44,0,0,1,1.88,1,7.43,7.43,0,0,1,3.28,4,6.34,6.34,0,0,1-.33,3.94c-1.83,4.72-10.43,7.31-17.07,5.1-2.56-.85-7-3.14-7.16-6.32a5.69,5.69,0,0,1,.86-3,9.71,9.71,0,0,1,4.47-4.08c4.46-2.29,9.35-3.38,16.59-4.22A75.81,75.81,0,0,1,238,175.7c10.15.46,11.71,1.44,14,2,2.95.79,8.91,2.39,10.39,6.36,1.17,3.13-.83,6.76-5.06,8.78-4.44,2.12-11.6,2.46-15.39-.32-3.62-2.65-4.56-7.63-2.3-10a19.71,19.71,0,0,1,7.89-4.76c4.07-1.34,15.1-2.5,23.89.68,8.59,3.1,9.88,10,10.2,11.69a12.82,12.82,0,0,1-1.38,8.27" transform="translate(-122.31 -173.08)"/></svg>